<?xml version="1.0" encoding="UTF-8" standalone="no"?>
<!-- Created with Inkscape (http://www.inkscape.org/) -->

<svg
   xmlns:dc="http://purl.org/dc/elements/1.1/"
   xmlns:cc="http://creativecommons.org/ns#"
   xmlns:rdf="http://www.w3.org/1999/02/22-rdf-syntax-ns#"
   xmlns:svg="http://www.w3.org/2000/svg"
   xmlns="http://www.w3.org/2000/svg"
   xmlns:sodipodi="http://sodipodi.sourceforge.net/DTD/sodipodi-0.dtd"
   xmlns:inkscape="http://www.inkscape.org/namespaces/inkscape"
   width="200"
   height="200"
   id="svg2"
   version="1.1"
   inkscape:version="0.48.3.1 r9886"
   sodipodi:docname="elevation.svg">
  <defs
     id="defs4" />
  <sodipodi:namedview
     id="base"
     pagecolor="#ffffff"
     bordercolor="#666666"
     borderopacity="1.0"
     inkscape:pageopacity="0.0"
     inkscape:pageshadow="2"
     inkscape:zoom="2.985"
     inkscape:cx="96.649916"
     inkscape:cy="99.329983"
     inkscape:document-units="px"
     inkscape:current-layer="layer1"
     showgrid="false"
     inkscape:window-width="1301"
     inkscape:window-height="744"
     inkscape:window-x="65"
     inkscape:window-y="24"
     inkscape:window-maximized="1" />
  <metadata
     id="metadata7">
    <rdf:RDF>
      <cc:Work
         rdf:about="">
        <dc:format>image/svg+xml</dc:format>
        <dc:type
           rdf:resource="http://purl.org/dc/dcmitype/StillImage" />
        <dc:title></dc:title>
      </cc:Work>
    </rdf:RDF>
  </metadata>
  <g
     inkscape:label="Layer 1"
     inkscape:groupmode="layer"
     id="layer1"
     transform="translate(0,-852.36218)">
    <path
       style="fill:none;stroke:#000000;stroke-width:1px;stroke-linecap:butt;stroke-linejoin:miter;stroke-opacity:1"
       d="M -2.0100503,17.755444 C -1.3400335,17.643774 -0.67725803,17.472532 0,17.420436 c 0.77938374,-0.05995 1.5633724,0 2.3450586,0 0.7816862,0 1.5633724,0 2.3450587,0 4.1317699,0 8.2635397,0 12.3953097,0 3.455071,0 4.242502,-0.385056 7.370184,1.005025 2.044137,0.908505 3.354881,2.271807 5.025126,3.685092 0.0299,0.0253 4.018653,3.348491 4.020101,3.350084 0.541676,0.595844 0.866402,1.358807 1.340033,2.01005 0.420562,0.578273 0.929989,1.089263 1.340034,1.675042 0.373403,0.533434 0.605264,1.161063 1.005025,1.675042 0.387825,0.498632 0.920356,0.867896 1.340033,1.340033 0.475042,0.534423 0.893356,1.116695 1.340034,1.675042 0.446677,0.558347 0.929988,1.089264 1.340033,1.675042 0.373404,0.533434 0.598262,1.166587 1.005025,1.675042 0.493273,0.616591 1.175023,1.063908 1.675042,1.675042 0.509921,0.623236 0.893356,1.340033 1.340034,2.01005 2.617386,3.92608 0.07073,0.0062 2.680067,4.355109 1.084029,1.806716 2.326846,3.518306 3.350083,5.360134 0.606327,1.091387 1.073366,2.256126 1.675042,3.350083 0.627593,1.141078 1.363939,2.21939 2.010051,3.350084 0.694204,1.214858 1.298228,2.480472 2.01005,3.685092 1.512462,2.559551 3.207896,5.018476 5.025125,7.370185 0.970442,1.255865 2.03692,2.435226 3.015076,3.685092 1.032342,1.319104 1.975372,2.706791 3.015075,4.0201 6.011737,7.593774 0.584825,0.409788 7.370184,8.37521 1.289293,1.513517 2.464445,3.120712 3.685093,4.690117 1.124441,1.44571 2.115149,3.002561 3.350083,4.355109 1.119345,1.225949 2.48426,2.203834 3.685092,3.350083 5.185176,4.94949 1.926143,2.391467 7.035176,6.36516 0.881466,0.68558 1.827598,1.28873 2.680067,2.01005 3.046248,3.04625 0.464027,0.68303 2.680067,2.34506 0.12634,0.0948 0.177084,0.33501 0.335009,0.33501 0.04452,0 -0.06529,-1.60976 0,-1.67505 0.07896,-0.079 0.223339,0 0.335008,0 0.446678,0 0.893351,0 1.340031,0 1.45171,0 2.90341,0 4.35511,0 0.44668,0 0.89609,-0.0493 1.34003,0 3.26986,0.36332 0.0932,0.15571 3.35009,1.34004 0.63836,0.23213 1.35472,0.15628 2.01005,0.33501 0.58017,0.15822 1.09904,0.49721 1.67504,0.67001 0.54539,0.16362 1.12965,0.17139 1.67504,0.33501 0.576,0.1728 1.1167,0.44668 1.67504,0.67002 0.55835,0.22334 1.12552,0.42578 1.67505,0.67002 0.95788,0.42572 2.16942,1.11127 3.01507,1.67504 0.92915,0.61943 1.78671,1.34003 2.68007,2.01005 0.44668,0.33501 0.86655,0.7091 1.34003,1.00502 0.42349,0.26468 0.93366,0.37975 1.34004,0.67002 0.38552,0.27537 0.6195,0.72965 1.00502,1.00502 0.40638,0.29028 0.89336,0.44668 1.34003,0.67002 0.81917,0.40959 1.63479,0.74814 2.34506,1.34003 0.36397,0.30331 0.64107,0.70173 1.00503,1.00503 0.30931,0.25776 0.69062,0.4185 1.00502,0.67002 0.24664,0.19731 0.44668,0.44667 0.67002,0.67001 0.33501,0.33501 0.67002,0.67002 1.00503,1.00503 0.335,0.33501 0.69669,0.64531 1.00502,1.00502 0.36337,0.42393 0.63735,0.91984 1.00503,1.34004 0.41597,0.4754 0.92405,0.86463 1.34003,1.34003 0.36767,0.4202 0.66223,0.8993 1.00502,1.34003 0.43899,0.56442 0.92999,1.08927 1.34004,1.67505 0.3734,0.53343 0.64384,1.13326 1.00502,1.67504 0.84074,1.26111 1.41603,1.73766 2.34506,3.01507 0.47363,0.65125 0.83011,1.38682 1.34003,2.01005 0.50002,0.61114 1.14389,1.09077 1.67505,1.67505 0.58668,0.64535 1.05832,1.39333 1.67504,2.01005 0.22718,0.22718 3.90925,3.34212 4.35511,3.68509 0.76141,0.5857 1.58971,1.08155 2.34506,1.67504 0.80954,0.63607 1.50728,1.41164 2.34505,2.01005 0.73262,0.52329 1.58774,0.85319 2.34506,1.34003 6.83842,4.39613 -1.54277,-0.53695 4.35511,2.68007 0.57163,0.3118 1.08003,0.74057 1.67504,1.00503 0.42075,0.18699 0.90324,0.1894 1.34004,0.335 2.73601,0.91201 0.60662,0.46982 3.01507,1.00503 1.11169,0.24704 2.25931,0.34278 3.35009,0.67002 0.57599,0.17279 1.09904,0.49721 1.67504,0.67001 0.71837,0.21551 3.20618,0.52635 3.68509,0.67002 1.52554,0.45766 0.95843,0.77392 2.34506,1.00502 0.33045,0.0551 0.67652,-0.0657 1.00502,0 0.24486,0.049 0.43313,0.25605 0.67002,0.33501 0.31782,0.10594 0.68002,-0.0813 1.00503,0 0.24224,0.0606 0.42777,0.27445 0.67001,0.33501 0.21667,0.0542 0.45102,-0.0438 0.67002,0 2.75446,0.91816 -0.70626,-0.11771 2.01005,0.33501 0.34833,0.0581 0.66548,0.238 1.00503,0.33501 1.22333,0.34952 2.49836,0.53033 3.68509,1.00502 0.23184,0.0927 0.42777,0.27445 0.67001,0.33501 0.43335,0.10834 0.91628,-0.14125 1.34004,0 0.14982,0.0499 0.19375,0.26438 0.33501,0.33501 0.19348,0.0967 1.68137,-0.0822 2.01005,0 0.24224,0.0606 0.42777,0.27445 0.67001,0.33501 0.43334,0.10833 0.9067,-0.10834 1.34004,0 0.24224,0.0606 0.42777,0.27445 0.67001,0.33501 0.21667,0.0542 0.44668,0 0.67002,0 0.55835,0 1.11669,0 1.67504,0 1.67504,0 3.35009,0 5.02513,0"
       id="path3816"
       inkscape:connector-curvature="0"
       transform="translate(0,852.36218)" />
    <path
       style="fill:none;stroke:#000000;stroke-width:1px;stroke-linecap:butt;stroke-linejoin:miter;stroke-opacity:1"
       d="m -5.6951424,53.60134 c 0.5583473,0 1.1402422,-0.16044 1.6750419,0 0.9825696,0.294771 3.10409335,2.140568 3.68509212,2.680067 3.06849998,2.849321 2.86225348,3.065266 6.03015078,6.365159 5.9797626,6.228919 3.2812052,3.156508 9.3802346,9.045226 1.704166,1.645402 3.40322,3.298582 5.025126,5.025126 3.747091,3.98884 6.899007,7.852756 10.385259,12.060301 1.569055,1.893687 3.153827,3.77478 4.690117,5.695143 3.596227,4.495283 5.746502,7.365968 9.045227,12.060298 1.478083,2.10343 2.956089,4.20834 4.355108,6.36516 1.281935,1.97632 2.456728,4.0201 3.685093,6.03015 1.228364,2.01005 2.516352,3.98486 3.685092,6.03015 2.921719,5.11301 3.150495,6.13135 5.695142,11.39029 0.761319,1.57339 1.630068,3.09514 2.345059,4.69012 1.654785,3.69144 2.166734,5.73617 3.685092,9.38023 3.818721,9.16493 -0.401435,-1.27181 3.350084,6.70017 0.406254,0.86329 0.556034,1.83821 1.005025,2.68006 0.841861,1.57849 2.584187,3.33516 3.685092,4.69012 0.802888,0.98817 1.502663,2.06036 2.345058,3.01508 2.631816,2.98272 5.952492,5.56601 9.045227,8.0402 1.116694,0.89335 2.160196,1.88681 3.350083,2.68007 1.164217,0.77614 2.456728,1.34003 3.685092,2.01005 1.228364,0.67001 2.421797,1.40848 3.685093,2.01005 1.904275,0.90679 3.681134,1.50655 5.695144,2.01005 0.5524,0.1381 1.18678,0.042 1.67504,0.335 0.19151,0.11491 0,0.44668 0,0.67002 0,0.33501 0,0.67002 0,1.00503 0,0.55834 -0.13542,1.13336 0,1.67504 0.0977,0.39061 0.47026,0.65544 0.67002,1.00502 0.24777,0.43361 0.42224,0.90644 0.67001,1.34004 0.19976,0.34958 0.48996,0.6449 0.67002,1.00502 0.15792,0.31585 0.1959,0.68045 0.33501,1.00503 0.19672,0.45902 0.51209,0.86626 0.67002,1.34003 0.0706,0.21188 0,0.44668 0,0.67002 0.11166,0.33501 0.20385,0.67715 0.335,1.00502 0.0927,0.23184 0.22334,0.44668 0.33501,0.67002 0.11167,0.22334 0.1965,0.46225 0.33501,0.67002 0.0876,0.1314 0.26438,0.19375 0.33501,0.335 0.0999,0.19977 -0.15793,0.5121 0,0.67002 0.079,0.079 0.25604,-0.079 0.33501,0 0.15792,0.15793 -0.0706,0.45814 0,0.67002 0.079,0.23688 0.25604,0.43313 0.33501,0.67001 0.0353,0.10594 -0.0353,0.22907 0,0.33501 0.079,0.23689 0.25604,0.43313 0.335,0.67002 0.0353,0.10594 -0.079,0.25605 0,0.33501 0.079,0.079 0.25605,-0.079 0.33501,0 0.079,0.079 -0.079,0.25604 0,0.33501 0.079,0.079 0.25605,-0.079 0.33501,0 0.17657,0.17656 0.1965,0.46225 0.33501,0.67001 0.1752,0.26281 0.49481,0.40722 0.67002,0.67002 0.1385,0.20776 0.15844,0.49345 0.335,0.67002 0.17657,0.17656 0.46226,0.1965 0.67002,0.33501 0.142,0.0947 0.93572,0.86641 1.00503,1.00502 0.0499,0.0999 0,0.22334 0,0.33501"
       id="path3818"
       inkscape:connector-curvature="0"
       transform="translate(0,852.36218)" />
    <path
       style="fill:none;stroke:#000000;stroke-width:1px;stroke-linecap:butt;stroke-linejoin:miter;stroke-opacity:1"
       d="m -10.720268,111.8928 c 4.2810446,2.65459 8.2527795,5.75691 12.0603015,9.04522 1.1370198,0.98198 2.2053774,2.04208 3.3500838,3.01508 1.0896241,0.92618 2.2843388,1.7265 3.3500837,2.68007 3.146295,2.8151 2.670573,2.81347 5.360134,5.69514 0.754283,0.80816 1.681776,1.46068 2.345059,2.34506 0.689824,0.91976 1.092117,2.0241 1.675042,3.01507 0.534139,0.90804 1.133027,1.77671 1.675041,2.68007 0.716418,1.19403 2.427601,4.30268 3.015076,5.36013 2.160103,3.88819 1.160877,1.98675 3.015075,5.69515 0.446678,0.89335 0.939695,1.765 1.340034,2.68006 0.382423,0.87411 0.629185,1.80311 1.005025,2.68007 0.295085,0.68853 0.749025,1.30605 1.005025,2.01005 0.19459,0.53512 0.154947,1.13486 0.335008,1.67504 0.157925,0.47378 0.473293,0.88101 0.670017,1.34004 0.139105,0.32457 0.177084,0.68917 0.335008,1.00502 0.07063,0.14125 0.264383,0.19376 0.335009,0.33501 0.04994,0.0999 -0.03531,0.22907 0,0.33501 0.07896,0.23688 0.274447,0.42777 0.335008,0.67001 0.05417,0.21667 -0.08295,0.46266 0,0.67002 0.149533,0.37383 0.489955,0.6449 0.670017,1.00503 0.157924,0.31584 0.211016,0.67438 0.335008,1.00502 0.211151,0.56307 0.401081,1.13717 0.670017,1.67504 0.180062,0.36013 0.446678,0.67002 0.670017,1.00503 0.223339,0.55835 0.425782,1.12551 0.670017,1.67504 0.405651,0.91272 0.893355,1.78671 1.340033,2.68007 0.223339,0.44667 0.422244,0.90643 0.670017,1.34003 0.961275,1.68223 0.472292,0.32033 1.340033,2.34506 0.139105,0.32458 0.195904,0.68045 0.335009,1.00502 0.196723,0.45903 0.446677,0.89336 0.670016,1.34004 0.223339,0.55834 0.446678,1.11669 0.670017,1.67504 0.223339,0.55835 0.401081,1.13717 0.670017,1.67504 0.738461,1.47692 1.271589,1.87316 2.01005,3.35008 1.435821,2.87165 -0.08086,0.52852 1.340034,3.01508 0.19976,0.34958 0.489955,0.6449 0.670016,1.00503 0.157925,0.31584 0.153325,0.70221 0.335009,1.00502 0.162503,0.27084 0.480507,0.41734 0.670017,0.67002 0.14982,0.19976 0.223338,0.44668 0.335008,0.67001 0.223339,0.44668 0.413077,0.9118 0.670017,1.34004 0.207151,0.34525 0.462865,0.65977 0.670016,1.00502 0.878165,1.46361 -0.288753,-0.2425 0.670017,1.67504 2.011457,4.02292 -0.529558,-1.44094 1.340034,1.67505 0.181683,0.3028 0.153324,0.70222 0.335008,1.00502 0.162503,0.27084 0.480507,0.41734 0.670017,0.67002 0.14982,0.19976 0.185188,0.47025 0.335008,0.67002 0.18951,0.25267 0.480508,0.41733 0.670017,0.67001 0.380714,0.50762 0.618792,1.52726 1.005025,2.01005 0.295964,0.36996 0.670017,0.67002 1.005025,1.00503 0.214553,0.21455 1.026528,1.13103 1.340034,1.34003 0.207763,0.13851 0.462253,0.1965 0.670016,0.33501 0.131402,0.0876 0.193757,0.26438 0.335009,0.33501 0.09988,0.0499 0.256046,-0.079 0.335008,0 0.446678,0.44668 -0.558347,0.33501 0.335009,0.33501"
       id="path3820"
       inkscape:connector-curvature="0"
       transform="translate(0,852.36218)" />
    <path
       style="fill:none;stroke:#000000;stroke-width:1px;stroke-linecap:butt;stroke-linejoin:miter;stroke-opacity:1"
       d="m 39.530988,-1.3400335 c 1.892645,0 1.765065,-0.3716584 3.015076,0.67001675 0.363962,0.30330233 0.6195,0.72964994 1.005025,1.00502513 0.406379,0.29027093 0.903478,0.42748618 1.340033,0.67001672 0.569198,0.3162212 1.105844,0.688804 1.675042,1.0050252 0.436555,0.2425305 0.933654,0.3797458 1.340034,0.6700167 0.385525,0.2753752 0.641062,0.7017228 1.005025,1.0050251 0.309309,0.2577574 0.720323,0.3853144 1.005025,0.6700168 0.94311,0.9431096 0.914162,1.3939588 1.675042,2.3450586 0.830929,1.0386621 0.652616,0.3002078 1.340033,1.6750419 0.157925,0.3158489 0.139127,0.7112033 0.335009,1.0050251 0.262802,0.3942033 0.769967,0.5936746 1.005025,1.0050255 0.228435,0.39976 0.173342,0.908924 0.335008,1.340033 0.175352,0.467604 0.422245,0.906432 0.670017,1.340034 0.19976,0.34958 0.470256,0.655444 0.670017,1.005025 0.247772,0.433601 0.422244,0.906432 0.670016,1.340033 0.199761,0.349581 0.489956,0.644902 0.670017,1.005025 1.879222,3.758443 -1.783424,-2.534727 1.005025,2.345059 0.199761,0.349581 0.511413,0.63495 0.670017,1.005025 0.18137,0.423197 0.173342,0.908924 0.335008,1.340034 0.175352,0.467603 0.467191,0.883675 0.670017,1.340033 0.244235,0.549528 0.401081,1.137171 0.670017,1.675042 0.291198,0.582397 0.735582,1.082267 1.005025,1.675042 0.292252,0.642955 0.354168,1.378352 0.670017,2.01005 0.360123,0.720247 0.907709,1.330684 1.340033,2.01005 4.276561,6.72031 -2.590318,-3.700454 2.345059,3.350084 0.373404,0.533434 0.605264,1.161064 1.005025,1.675042 0.77565,0.997264 1.904417,1.682803 2.680067,2.680067 0.399761,0.513978 0.605264,1.161064 1.005025,1.675042 0.77565,0.997264 1.89083,1.693521 2.680067,2.680067 0.503042,0.628802 0.856878,1.365842 1.340034,2.01005 0.523299,0.697733 1.116694,1.340034 1.675042,2.01005 2.334138,2.800966 1.107443,1.347853 3.685092,4.355109 0.670016,0.781686 1.257398,1.642584 2.01005,2.345059 1.032843,0.963986 5.780259,4.356101 6.700167,5.025126 1.228364,0.893355 2.412872,1.850357 3.685093,2.680067 1.299437,0.847458 2.689818,1.546889 4.0201,2.345058 1.461648,0.876989 2.909645,1.776652 4.355108,2.680067 1.23468,0.771674 2.43159,1.604353 3.68509,2.345059 2.19442,1.296701 4.47861,2.435464 6.70017,3.685092 1.40748,0.791709 2.48415,1.571206 4.0201,2.01005 0.21475,0.06136 0.44668,0 0.67002,0 0.89335,0 1.78671,0 2.68006,0 0.89336,0 1.78672,0 2.68007,0 1.1167,0 2.23478,-0.05576 3.35009,0 1.12086,0.05604 2.24308,0.150509 3.35008,0.335009 1.01926,0.169877 3.14563,0.884077 4.35511,1.005025 0.55557,0.05556 1.121,-0.06925 1.67504,0 0.80806,0.101007 0.99596,0.398382 1.67504,0.670016 0.65575,0.262299 1.33097,0.475993 2.01005,0.670017 1.76707,0.504876 3.5771,0.894274 5.36014,1.340034 0.25031,0.06258 2.00176,0.464042 2.34505,0.670016 0.27084,0.162503 0.38752,0.528765 0.67002,0.670017 0.19976,0.09988 0.45814,-0.07063 0.67002,0 0.14982,0.04994 0.20361,0.247408 0.33501,0.335009 0.20776,0.138508 0.43313,0.256046 0.67001,0.335008 0.10594,0.03531 0.22334,0 0.33501,0 0.43842,0 1.29722,-0.07556 1.67504,0 0.34628,0.06925 0.65545,0.285068 1.00503,0.335008 0.44219,0.06317 0.89335,0 1.34003,0 0.44668,0 0.89336,0 1.34004,0 1.67504,0 3.35008,0 5.02512,0 0.55835,0 1.1167,0 1.67504,0 0.33501,0 0.67002,0 1.00503,0 0.11167,0 0.22667,-0.02708 0.33501,0 0.34258,0.08565 0.65875,0.265754 1.00502,0.335009 0.219,0.0438 0.44668,0 0.67002,0 0.33501,0 0.67002,0 1.00502,0 1.1167,0 2.23339,0 3.35009,0 3.01507,0 6.03015,0 9.04522,0 3.57343,0 7.14685,0 10.72027,0 1.1167,0 2.23339,0 3.35009,0 0.335,0 0.67457,0.05508 1.00502,0 0.34833,-0.05805 0.6567,-0.276955 1.00503,-0.335009 0.6609,-0.11015 1.34915,0.11015 2.01005,0 0.69665,-0.116108 1.33096,-0.475992 2.01005,-0.670016 0.0303,-0.0087 2.67395,-0.667395 2.68006,-0.670017 0.37008,-0.158604 0.67002,-0.446678 1.00503,-0.670017 0.33501,-0.223339 0.69062,-0.418496 1.00502,-0.670017 0.24664,-0.197309 0.44668,-0.446678 0.67002,-0.670016 0.22334,-0.223339 0.48051,-0.417338 0.67002,-0.670017 0.14982,-0.199761 0.22334,-0.446678 0.33501,-0.670017 0.22333,-0.335008 0.41849,-0.690624 0.67001,-1.005025 0.19731,-0.246637 0.50752,-0.399179 0.67002,-0.670017 0.18168,-0.302806 0.15332,-0.702219 0.33501,-1.005025 0.1625,-0.270838 0.44668,-0.446678 0.67001,-0.670017 0.33501,-0.335008 0.64107,-0.701722 1.00503,-1.005025 0.30931,-0.257757 0.69572,-0.412259 1.00502,-0.670017 1.30079,-1.083987 0.48016,-1.005025 1.34004,-1.005025"
       id="path3822"
       inkscape:connector-curvature="0"
       transform="translate(0,852.36218)" />
    <path
       style="fill:#000000;stroke:#000000;stroke-width:1px;stroke-linecap:butt;stroke-linejoin:miter;stroke-opacity:1;fill-opacity:1"
       d="m 132.66332,11.725293 c -1.43721,0 -1.24372,-0.247772 -2.34506,0.670017 -0.36396,0.303302 -0.6195,0.72965 -1.00503,1.005025 -0.40638,0.290271 -0.93365,0.379746 -1.34003,0.670017 -0.38553,0.275375 -0.67002,0.670017 -1.00503,1.005025 -0.22333,0.223339 -0.44667,0.446678 -0.67001,0.670017 -0.11167,0.111669 -0.19376,0.264382 -0.33501,0.335008 -0.0999,0.04994 -0.25605,-0.07896 -0.33501,0 -0.15792,0.157924 0.0829,0.462652 0,0.670017 -0.18547,0.463682 -0.46719,0.883675 -0.67002,1.340033 -2.36918,5.330673 1.93478,-3.692647 -2.01005,4.690118 -0.90345,1.919831 -1.64216,3.057023 -2.34505,5.025125 -0.27343,0.765604 -0.3922,1.581039 -0.67002,2.345059 -0.17067,0.469334 -0.5489,0.855543 -0.67002,1.340033 -0.10833,0.433341 0,0.893356 0,1.340034 0,1.116694 0,2.233389 0,3.350084 0,1.451702 0,2.903405 0,4.355108 0,0.558348 -0.1095,1.127538 0,1.675042 0.12084,0.604178 1.43175,3.337528 1.67504,3.685092 1.21289,1.212889 1.42237,1.296024 2.34506,2.680067 0.36119,0.541781 0.61434,1.154131 1.00503,1.675042 0.28426,0.379019 0.69669,0.64531 1.00502,1.005025 0.36337,0.423929 0.64166,0.916105 1.00503,1.340034 0.87614,1.022171 2.80516,2.529101 4.0201,3.015075 0.52868,0.211472 1.12965,0.171391 1.67504,0.335009 1.36844,0.410533 1.65369,0.85376 3.01508,1.005025 0.55493,0.06166 1.11669,0 1.67504,0 0.55834,0 1.11669,0 1.67504,0 1.67504,0 3.35008,0 5.02512,0 1.67505,0 3.35009,0 5.02513,0 0.55835,0 1.11669,0 1.67504,0 0.55835,0 1.11947,0.05556 1.67504,0 1.17689,-0.117689 2.29525,-0.477607 3.35009,-1.005025 0.58239,-0.291199 1.10584,-0.688804 1.67504,-1.005025 0.43655,-0.242531 0.90643,-0.422245 1.34003,-0.670017 0.34958,-0.199761 0.67002,-0.446678 1.00503,-0.670017 0.33501,-0.223339 0.69062,-0.418496 1.00502,-0.670017 0.24664,-0.197309 0.44668,-0.446678 0.67002,-0.670016 0.22334,-0.223339 0.48051,-0.417338 0.67002,-0.670017 0.14982,-0.199761 0.20654,-0.455901 0.33501,-0.670017 0.47191,-0.786526 0.69871,-0.909259 1.00502,-1.675042 0.2623,-0.655745 0.40772,-1.354304 0.67002,-2.01005 0.0927,-0.231841 0.28604,-0.425165 0.33501,-0.670017 0.0657,-0.328503 -0.0657,-0.676522 0,-1.005025 0.049,-0.244851 0.28603,-0.425165 0.335,-0.670017 0.0657,-0.328502 -0.0551,-0.674575 0,-1.005025 0.0581,-0.348325 0.28507,-0.655444 0.33501,-1.005025 0.0632,-0.442188 0,-0.893356 0,-1.340033 0,-1.777778 0,-0.90229 0,-2.680067 0,-2.568398 0,-5.136796 0,-7.705193 0,-1.675042 0,-3.350084 0,-5.025126 0,-0.558347 0,-1.116694 0,-1.675042 0,-0.223339 0.0542,-0.453346 0,-0.670016 -0.0606,-0.242245 -0.24227,-0.438176 -0.33501,-0.670017 -0.2724,-0.681 -0.27719,-1.085801 -0.67001,-1.675042 -0.0876,-0.131401 -0.28507,-0.185188 -0.33501,-0.335008 -0.0706,-0.211878 0.0706,-0.458139 0,-0.670017 -0.0999,-0.299641 -0.49482,-0.407215 -0.67002,-0.670017 -0.13851,-0.207763 -0.15844,-0.493452 -0.33501,-0.670017 -0.17656,-0.176565 -0.46225,-0.196499 -0.67001,-0.335008 -0.1314,-0.0876 -0.20361,-0.247408 -0.33501,-0.335008 -0.58924,-0.392827 -0.99404,-0.397617 -1.67504,-0.670017 -0.23184,-0.09274 -0.43818,-0.242272 -0.67002,-0.335008 -0.32787,-0.13115 -0.67715,-0.20386 -1.00503,-0.335009 -0.0463,-0.01852 -1.32423,-0.666856 -1.34003,-0.670017 -0.54208,-0.164251 -1.12754,0.109501 -1.67504,0 -0.34627,-0.06925 -0.65875,-0.265754 -1.00503,-0.335008 -0.37782,-0.07557 -1.23662,0 -1.67504,0 -0.22334,0 -0.44668,0 -0.67001,0 -0.11167,0 -0.23513,0.04994 -0.33501,0 -0.14125,-0.07063 -0.19376,-0.264382 -0.33501,-0.335008 -0.20805,-0.104026 -1.79539,0.107332 -2.01005,0 -0.14125,-0.07063 -0.18519,-0.285069 -0.33501,-0.335009 -0.18468,-0.06156 -1.72575,0 -2.01005,0 -0.11167,0 -0.22907,0.03531 -0.33501,0 -0.23689,-0.07896 -0.43313,-0.256046 -0.67002,-0.335008 -0.10593,-0.03531 -0.25604,0.07896 -0.335,0 -0.079,-0.07896 0.079,-0.256046 0,-0.335008 -0.079,-0.07896 -0.23513,0.04994 -0.33501,0 -1.5332,-0.766601 1.42158,0.138851 -1.00503,-0.670017 -0.10594,-0.03531 -0.22907,0.03531 -0.33501,0 -0.23688,-0.07896 -0.42777,-0.274447 -0.67001,-0.335009 -0.21667,-0.05417 -0.45814,0.07063 -0.67002,0 -0.14982,-0.04994 -0.18519,-0.285068 -0.33501,-0.335008 -0.21188,-0.07063 -0.45814,0.07063 -0.67001,0 -0.14982,-0.04994 -0.19376,-0.264382 -0.33501,-0.335008 -0.19976,-0.09988 -0.47026,0.09988 -0.67002,0 -0.14125,-0.07063 -0.19376,-0.264383 -0.33501,-0.335009 -0.18174,-0.09087 -1.24837,0.09167 -1.34003,0 -0.079,-0.07896 0.079,-0.256046 0,-0.335008 -0.0406,-0.04061 -0.53248,0.03439 -0.67002,0 -0.34258,-0.08565 -0.65875,-0.265754 -1.00502,-0.335008 -0.54622,-0.109243 -1.42871,0.07267 -2.01005,0 -0.67402,-0.08425 -1.34004,-0.223339 -2.01005,-0.335009 z"
       id="path3824"
       inkscape:connector-curvature="0"
       transform="translate(0,852.36218)" />
    <rect
       style="fill:none;fill-opacity:1;stroke:#000000;stroke-opacity:1"
       id="rect3826"
       width="207.7052"
       height="206.03015"
       x="-2.6800671"
       y="-2.0100503"
       transform="translate(0,852.36218)" />
    <path
       style="fill:#b3b3b3;stroke:#b3b3b3;stroke-width:2.68006705999999983;stroke-miterlimit:4;stroke-opacity:1;stroke-dasharray:none;fill-opacity:1"
       d="m -1.9095477,161.24325 0,-42.07333 1.08877718,0.91382 c 0.59882747,0.5026 2.44556112,2.05219 4.10385262,3.44354 1.6582914,1.39135 5.0178449,4.57393 7.4656739,7.07241 4.222381,4.30975 4.618919,4.83472 7.733085,10.23783 5.771876,10.01426 7.310206,13.15992 10.403186,21.27303 1.895706,4.97258 2.389221,6.07752 5.237017,11.7253 1.532971,3.0402 3.108737,6.35678 3.501701,7.37018 0.392969,1.0134 1.262962,2.82245 1.93332,4.0201 0.670362,1.19766 1.726711,3.23283 2.347444,4.52261 0.620734,1.28979 1.32868,2.57119 1.573216,2.84757 0.244536,0.27639 1.084459,1.77655 1.866503,3.33371 0.78204,1.55715 1.554784,2.98931 1.717206,3.18258 0.548938,0.65317 2.955316,3.98916 2.955316,4.09698 0,0.0589 -11.683417,0.107 -25.963149,0.107 l -25.9631487,0 0,-42.07333 z"
       id="path3828"
       inkscape:connector-curvature="0"
       transform="translate(0,852.36218)" />
    <path
       style="fill:#808080;fill-opacity:1;stroke:#808080;stroke-width:2.68006705999999983;stroke-miterlimit:4;stroke-opacity:1;stroke-dasharray:none"
       d="M 50.358084,201.05528 C 46.274154,195.5097 34.690489,172.56852 29.879517,160.49795 26.68497,152.48294 23.786515,146.74848 18.248967,137.48744 16.376456,134.35584 15.31349,133.0704 11.17183,128.9291 8.4913099,126.24881 4.4514238,122.50188 2.1943049,120.60259 l -4.1038526,-3.45326 0,-30.631357 0,-30.631353 12.1512027,12.157192 c 11.828173,11.834005 16.658318,17.198962 25.422697,28.237595 12.721099,16.022073 23.321109,34.034353 30.114914,51.173383 1.469424,3.70698 2.900597,6.99291 3.180379,7.30207 0.279782,0.30915 1.017457,1.78669 1.639276,3.28342 0.852543,2.05209 1.91601,3.69046 4.324386,6.66213 3.833989,4.73072 5.130345,6.01103 10.687866,10.55559 5.483494,4.48402 11.728522,7.96711 16.666887,9.29575 l 2.17755,0.58586 0.20021,1.80205 c 0.13033,1.17314 0.64286,2.60596 1.46857,4.1055 0.6976,1.2669 1.38876,2.77443 1.53592,3.35009 0.54947,2.14941 2.54739,6.48428 3.42458,7.4303 0.49963,0.53882 0.90841,1.09428 0.90841,1.23435 0,0.14008 -13.493233,0.25468 -29.984962,0.25468 l -29.984961,0 -1.665293,-2.2613 z"
       id="path3830"
       inkscape:connector-curvature="0"
       transform="translate(0,852.36218)" />
    <path
       style="fill:#666666;fill-opacity:1;stroke:#666666;stroke-width:2.68006705999999983;stroke-miterlimit:4;stroke-opacity:1;stroke-dasharray:none"
       d="m 113.19438,201.96404 c -1.09711,-1.21437 -1.58306,-2.0838 -3.08257,-5.51513 -3.17414,-7.26337 -3.89081,-9.15625 -4.04976,-10.69631 l -0.18222,-1.76562 -2.71582,-0.78474 C 94.0394,180.56564 82.257588,171.88727 75.358436,162.72091 72.985169,159.56774 70.19398,154.12736 67.10799,146.63977 62.253347,134.86084 54.534797,120.37672 47.680951,110.18425 37.583846,95.168697 27.757575,83.546057 10.427728,66.120673 L -1.9095477,53.71538 l 0,-17.646529 0,-17.646531 1.08877718,-0.202121 c 0.59882747,-0.111166 6.06365162,-0.155685 12.14405352,-0.09893 10.398265,0.09706 11.14546,0.144925 12.572757,0.80547 1.724091,0.797901 9.277437,7.023752 10.040308,8.275732 1.22997,2.018559 2.616406,3.887605 4.150185,5.594851 0.910435,1.0134 2.142841,2.602849 2.738683,3.532109 0.595843,0.929259 1.34063,1.903086 1.655082,2.164058 1.134744,0.941754 7.235109,10.730465 10.886536,17.468654 2.522519,4.654948 5.023132,8.699243 7.012241,11.341042 4.460721,5.924432 9.67993,12.408515 11.885826,14.766361 1.306231,1.396208 3.94127,4.562037 5.855638,7.035176 3.619987,4.676597 9.474587,10.573203 14.199414,14.301288 1.463437,1.15472 3.503635,2.8507 4.533776,3.76885 2.175179,1.9387 2.744261,2.07647 2.744261,0.66434 l 0,-1.00503 3.69688,0 c 2.70349,0 3.90067,0.13354 4.4553,0.49694 0.41714,0.27332 2.40932,0.96635 4.42708,1.54008 5.397,1.53458 8.12534,2.99295 14.22141,7.60173 0.46064,0.34825 1.66667,1.07316 2.68007,1.61092 1.10786,0.58788 3.17833,2.3154 5.19263,4.33256 3.20705,3.2116 4.04694,4.24173 8.2077,10.06682 3.5832,5.0165 6.15401,7.57443 13.0398,12.97444 2.92899,2.29698 9.07843,6.03389 11.24831,6.83539 0.73702,0.27224 3.90285,1.1489 7.03518,1.94815 3.13232,0.79925 6.1474,1.60847 6.70016,1.79826 0.55277,0.18979 2.51257,0.66061 4.35511,1.04626 1.84255,0.38565 4.48074,1.00041 5.86265,1.36613 3.36189,0.88972 8.63037,1.64865 11.44485,1.64865 l 2.29049,0 0,21.60804 0,21.60804 -45.01964,0 -45.01965,0 -1.22194,-1.35254 z"
       id="path3832"
       inkscape:connector-curvature="0"
       transform="translate(0,852.36218)" />
    <path
       style="fill:#333333;fill-opacity:1;stroke:#333333;stroke-width:2.68006705999999983;stroke-miterlimit:4;stroke-opacity:1;stroke-dasharray:none"
       d="m 200.93802,158.53696 c -5.1868,-0.42916 -15.45316,-2.66961 -27.90028,-6.08873 -6.37738,-1.75182 -8.165,-2.54821 -13.13824,-5.85313 -7.07678,-4.70283 -11.78876,-9.21784 -17.29594,-16.57294 -4.52698,-6.04602 -9.70315,-11.40352 -12.85482,-13.30515 -1.19765,-0.72264 -3.38358,-2.17133 -4.85762,-3.21932 -4.12188,-2.93051 -6.62287,-4.15998 -12.53259,-6.16097 l -5.44192,-1.84258 -4.30141,0 c -2.734661,0 -4.344563,0.12946 -4.41989,0.35544 C 98.042529,106.30793 89.931789,99.440911 86.061028,95.576003 81.066275,90.588797 63.701464,69.540553 59.833926,63.785595 59.090975,62.680067 56.757062,58.760469 54.647457,55.075377 48.898278,45.032616 46.104559,40.690399 41.917755,35.289873 39.831162,32.598399 37.327424,29.289251 36.353886,27.936213 34.542928,25.419318 31.894291,22.899154 27.738693,19.738904 23.805686,16.74793 24.675782,16.89778 10.569514,16.78198 l -12.4790617,-0.102443 0,-9.0265357 0,-9.0265356 20.6030147,0 c 13.512004,0 20.603015,0.1153009 20.603015,0.3350083 0,0.18425464 0.504275,0.33500841 1.120607,0.33500841 0.69538,0 1.350837,0.25440255 1.727336,0.67042928 0.333702,0.36873608 1.600788,1.22399751 2.815743,1.90058081 3.723577,2.0735819 4.805008,3.152941 7.829252,7.8142495 0.933344,1.438577 5.662774,10.984362 7.764265,15.67123 0.849176,1.893882 2.10465,4.283124 2.789943,5.309426 0.685293,1.026301 1.646898,2.462825 2.136898,3.192272 0.490003,0.729447 1.620657,2.141233 2.512563,3.1373 2.191886,2.447859 4.71263,5.430368 9.483474,11.220727 3.328576,4.039883 4.617852,5.319685 7.62005,7.564074 6.515762,4.871061 13.193638,9.112958 23.379097,14.850797 l 5.69514,3.208278 6.86768,0.230677 c 4.38294,0.147219 7.5949,0.41804 8.87772,0.748536 1.10553,0.28482 2.50749,0.520214 3.11546,0.523092 0.60798,0.003 1.52715,0.22332 2.0426,0.489872 0.51546,0.266553 2.75329,0.943133 4.97296,1.503515 2.21966,0.560378 4.8266,1.416087 5.79318,1.901574 1.72675,0.8673 1.93056,0.888245 11.67708,1.199967 5.45581,0.174496 16.10056,0.251082 23.655,0.170197 12.8145,-0.137209 13.89256,-0.194874 16.0804,-0.860174 2.77695,-0.844435 4.59904,-2.043229 6.10336,-4.015521 l 1.09932,-1.44131 0,42.237099 0,42.2371 -1.08878,-0.0563 c -0.59882,-0.031 -1.69179,-0.10621 -2.42881,-0.16719 z"
       id="path3834"
       inkscape:connector-curvature="0"
       transform="translate(0,852.36218)" />
    <path
       style="fill:#1a1a1a;fill-opacity:1;stroke:#1a1a1a;stroke-width:2.68006705999999983;stroke-miterlimit:4;stroke-opacity:1;stroke-dasharray:none"
       d="m 152.0268,78.699471 c -2.93589,-0.148235 -4.68262,-0.391213 -5.36013,-0.745622 -1.72185,-0.900703 -11.90233,-3.861353 -15.24288,-4.432881 -1.75042,-0.299474 -6.27304,-0.703564 -10.05026,-0.897976 l -6.86767,-0.353474 -7.03517,-4.028982 C 94.917106,61.051216 86.171899,55.13591 82.38674,51.273621 78.711749,47.523745 67.854791,34.494744 65.588286,31.114471 64.411736,29.359758 62.607264,26.118552 61.578349,23.911791 59.298034,19.021093 54.954236,10.339799 53.96817,8.7024747 51.958183,5.3649672 49.900648,3.2639993 46.382422,0.95659652 l -3.552881,-2.33013082 80.813039,0 80.81303,0 0,36.4790583 0,36.479059 -1.46003,1.963152 c -0.80301,1.079736 -1.82247,2.294985 -2.26547,2.700556 -1.22048,1.117364 -3.62456,2.061836 -6.1934,2.433163 -2.53025,0.365745 -35.3473,0.379655 -42.50991,0.01802 l 0,-6e-6 z m 4.52261,-22.776342 c 3.85995,-2.029638 5.98495,-4.181625 7.12342,-7.213903 1.38217,-3.681353 1.5868,-5.690747 1.5868,-15.581517 0,-8.993138 -0.0232,-9.31888 -0.80062,-11.229689 -1.10528,-2.716712 -2.28747,-3.822923 -5.41559,-5.067518 -2.10651,-0.838123 -3.74433,-1.182761 -7.85414,-1.652701 -2.85595,-0.326566 -5.26801,-0.70179 -5.36013,-0.833831 -0.0921,-0.132042 -1.72143,-0.780748 -3.62067,-1.441568 -2.54452,-0.88534 -4.46485,-1.300278 -7.29793,-1.576914 l -3.84477,-0.375422 -1.57979,1.185971 c -3.16293,2.374456 -4.38706,3.415316 -4.40701,3.747191 -0.0256,0.425432 -2.64751,6.467733 -3.77798,8.706387 -0.46522,0.921273 -1.24224,2.831017 -1.7267,4.243876 -0.8167,2.381798 -0.88083,2.986194 -0.88083,8.301012 0,5.655504 0.013,5.757812 0.96839,7.648921 0.53262,1.054207 1.29126,2.208331 1.68586,2.56472 0.3946,0.356385 1.0439,1.185531 1.44287,1.842546 1.18126,1.94525 3.8957,4.926774 5.37925,5.908543 0.76004,0.502968 2.4438,1.257996 3.7417,1.677842 2.25532,0.729555 2.79001,0.760697 12.07506,0.703357 l 9.71524,-0.06 2.84757,-1.497307 z"
       id="path3836"
       inkscape:connector-curvature="0"
       transform="translate(0,852.36218)" />
  </g>
</svg>
